# xmcd
#
# Track frame offsets: 
#        150
#        16790
#        27265
#        39701
#        50986
#        67221
#        78487
#        95862
#        112243
#        122009
#        136560
#        154569
#        167002
#        181355
#        198453
#        214358
#        224128
#        238091
#        250107
#        266308
#
# Disc length: 3786 seconds
#
# Revision: 2
# Processed by: cddbd v1.5.2PL0 Copyright (c) Steve Scherf et al.
# Submitted via: ExactAudioCopy v1.4
#
DISCID=2e0ec814
DTITLE=Mossy Kilcher - Northwind Calling
DYEAR=1900
DGENRE=
TTITLE0=So Long!
TTITLE1=Fox Sparrow
TTITLE2=Sea Man
TTITLE3=Day Dream Land
TTITLE4=Northwind Calling
TTITLE5=Coyote's Cry
TTITLE6=Going to Blow
TTITLE7=What is that Light
TTITLE8=Eagle, Goodbye
TTITLE9=Little Brown Violins
TTITLE10=Cloudy Day
TTITLE11=It's Harder to be Left Behind
TTITLE12=Alone Too Long
TTITLE13=Where Does This River Flow
TTITLE14=Flag of Green Lands Flying
TTITLE15=Rainfall
TTITLE16=Mother's Song
TTITLE17=Changes, Changes
TTITLE18=Birds of Passage
TTITLE19=Come Back, Come Back
EXTD=orig. Mossy Davidson's Northwind Calling\n\n1977
EXTT0=
EXTT1=
EXTT2=
EXTT3=
EXTT4=
EXTT5=
EXTT6=
EXTT7=
EXTT8=
EXTT9=
EXTT10=
EXTT11=
EXTT12=
EXTT13=
EXTT14=
EXTT15=
EXTT16=
EXTT17=
EXTT18=
EXTT19=
PLAYORDER=
